<svg width="160" height="108" viewBox="0 0 160 108" fill="none" xmlns="http://www.w3.org/2000/svg">
<path d="M67.6758 12.5244C70.8008 16.2842 73.1201 20.7031 74.6338 25.7812C76.1963 30.8105 76.9775 36.084 76.9775 41.6016C76.9775 48.2422 76.0254 54.1992 74.1211 59.4727C72.2168 64.6973 69.6045 69.043 66.2842 72.5098C62.8662 76.0742 58.8135 78.7598 54.126 80.5664C49.4385 82.373 44.2139 83.2764 38.4521 83.2764C32.1533 83.2764 26.5381 82.2266 21.6064 80.127C16.6748 78.0273 12.6709 75.1465 9.59473 71.4844C6.37207 67.6758 3.95508 63.2324 2.34375 58.1543C0.78125 53.0273 0 47.5098 0 41.6016C0 35.791 0.756836 30.4443 2.27051 25.5615C3.83301 20.6787 6.25 16.2598 9.52148 12.3047C12.6465 8.49609 16.6748 5.49316 21.6064 3.2959C26.5381 1.09863 32.1777 0 38.5254 0C45.2148 0 50.9521 1.12305 55.7373 3.36914C60.5225 5.61523 64.502 8.66699 67.6758 12.5244ZM60.791 41.6016C60.791 29.9805 58.7891 20.9717 54.7852 14.5752C50.8301 8.17871 45.4346 4.98047 38.5986 4.98047C31.665 4.98047 26.1963 8.17871 22.1924 14.5752C18.1885 20.9717 16.1865 29.9805 16.1865 41.6016C16.1865 52.6367 18.0908 61.5234 21.8994 68.2617C25.7568 74.9512 31.2744 78.2959 38.4521 78.2959C45.6299 78.2959 51.1475 74.9512 55.0049 68.2617C58.8623 61.5234 60.791 52.6367 60.791 41.6016Z" fill="#1167B1" fill-opacity="0.2"/>
<path d="M120.264 107.666C115.674 107.666 111.475 107.08 107.666 105.908C103.857 104.785 100.586 103.247 97.8516 101.294C95.1172 99.3408 92.9932 97.0947 91.4795 94.5557C90.0146 92.0166 89.2822 89.4043 89.2822 86.7188C89.2822 84.3262 89.8682 82.1777 91.04 80.2734C92.2119 78.3203 94.0918 77.3438 96.6797 77.3438C99.6094 77.3438 101.831 78.0762 103.345 79.541C104.907 80.957 105.688 82.5928 105.688 84.4482C105.688 86.0107 105.42 87.9883 104.883 90.3809C104.395 92.7734 104.004 94.4824 103.711 95.5078C104.053 95.9473 104.663 96.5332 105.542 97.2656C106.47 97.998 107.593 98.6572 108.911 99.2432C110.474 99.9756 112.109 100.562 113.818 101.001C115.527 101.44 117.944 101.66 121.069 101.66C123.999 101.66 126.807 101.172 129.492 100.195C132.227 99.2188 134.619 97.6562 136.67 95.5078C138.818 93.2617 140.479 90.625 141.65 87.5977C142.871 84.6191 143.481 80.6885 143.481 75.8057C143.481 73.1689 143.188 70.5566 142.603 67.9688C142.065 65.3809 141.04 63.1348 139.526 61.2305C138.013 59.3262 135.938 57.8613 133.301 56.8359C130.713 55.7617 127.417 55.2246 123.413 55.2246H113.818V46.8018H120.19C126.929 46.8018 131.787 44.9463 134.766 41.2354C137.744 37.5244 139.233 31.9336 139.233 24.4629C139.233 18.3594 137.793 13.7695 134.912 10.6934C132.031 7.56836 127.954 6.00586 122.681 6.00586C120.142 6.00586 118.042 6.32324 116.382 6.95801C114.771 7.54395 113.452 8.12988 112.427 8.71582C111.206 9.39941 110.205 10.1562 109.424 10.9863C108.643 11.8164 108.057 12.4268 107.666 12.8174C108.008 14.3799 108.423 16.3086 108.911 18.6035C109.399 20.8496 109.644 22.998 109.644 25.0488C109.644 26.8555 108.862 28.4912 107.3 29.9561C105.786 31.3721 103.54 32.0801 100.562 32.0801C97.9736 32.0801 96.0693 31.1523 94.8486 29.2969C93.6768 27.4414 93.0908 25.293 93.0908 22.8516C93.0908 20.3125 93.7988 17.7246 95.2148 15.0879C96.6309 12.4512 98.7305 9.98535 101.514 7.69043C104.297 5.39551 107.69 3.54004 111.694 2.12402C115.698 0.708008 120.312 0 125.537 0C131.543 0 136.499 0.90332 140.405 2.70996C144.36 4.46777 147.461 6.61621 149.707 9.15527C151.904 11.6455 153.418 14.2578 154.248 16.9922C155.078 19.7266 155.493 22.0703 155.493 24.0234C155.493 26.4648 155.151 28.9307 154.468 31.4209C153.784 33.8623 152.661 36.1328 151.099 38.2324C149.39 40.5273 147.119 42.627 144.287 44.5312C141.504 46.3867 137.988 47.9004 133.74 49.0723V50.2441C136.475 50.4883 139.38 51.0986 142.456 52.0752C145.581 53.0518 148.389 54.4922 150.879 56.3965C153.467 58.3984 155.591 60.9863 157.251 64.1602C158.911 67.2852 159.741 71.2646 159.741 76.0986C159.741 85.4736 155.981 93.0664 148.462 98.877C140.942 104.736 131.543 107.666 120.264 107.666Z" fill="#1167B1" fill-opacity="0.2"/>
</svg>
