<svg width="100" height="30" viewBox="0 0 121 37" fill="none" xmlns="http://www.w3.org/2000/svg">
<path d="M6.16 29H2.98023e-08L2.32 2.04H9.08L12.84 11.8C13.48 13.4267 14.0267 14.92 14.48 16.28C14.9333 17.64 15.2267 18.6 15.36 19.16L15.56 19.96C15.9867 18.2 16.92 15.48 18.36 11.8L22.16 2.04H28.92L31.72 29H25.56L24.56 18.56L24.04 10.68C23.3467 12.68 22.3867 15.3067 21.16 18.56L17.36 28.72H13.72L9.96 18.56C9.34667 16.9067 8.82667 15.4267 8.4 14.12C7.97333 12.8133 7.69333 11.9067 7.56 11.4L7.36 10.68C7.36 12.5733 7.24 15.2 7 18.56L6.16 29ZM48.8231 27.84C47.4365 28.7467 45.3165 29.2 42.4631 29.2C39.1298 29.2 36.5298 28.24 34.6631 26.32C32.8231 24.3733 31.9031 21.88 31.9031 18.84C31.9031 15.6133 32.7965 13.0933 34.5831 11.28C36.3965 9.44 38.6231 8.52 41.2631 8.52C43.9831 8.52 46.1298 9.32 47.7031 10.92C49.2765 12.4933 50.0631 14.8533 50.0631 18C50.0631 18.6133 49.9565 19.6667 49.7431 21.16H37.8231C38.2231 22.28 38.9165 23.1467 39.9031 23.76C40.8898 24.3733 42.0765 24.68 43.4631 24.68C45.5165 24.68 47.3031 24.1067 48.8231 22.96V27.84ZM41.5031 12.96C40.5698 12.96 39.7431 13.3067 39.0231 14C38.3031 14.6667 37.8231 15.6667 37.5831 17H44.6231V16.52C44.4365 14.1467 43.3965 12.96 41.5031 12.96ZM55.9512 18.92C55.9512 20.5467 56.3779 21.8667 57.2312 22.88C58.0846 23.8667 59.1246 24.36 60.3512 24.36C61.6846 24.36 62.7646 23.84 63.5912 22.8C64.4179 21.76 64.8312 20.3733 64.8312 18.64C64.8312 16.96 64.3779 15.6533 63.4712 14.72C62.5912 13.7867 61.5379 13.32 60.3112 13.32C59.0846 13.32 58.0446 13.8133 57.1912 14.8C56.3646 15.7867 55.9512 17.16 55.9512 18.92ZM70.6712 29H64.8312V25.84C63.4712 28.1067 61.4446 29.24 58.7512 29.24C56.1112 29.24 53.9912 28.2133 52.3912 26.16C50.8179 24.1067 50.0312 21.6533 50.0312 18.8C50.0312 15.6 50.8579 13.08 52.5112 11.24C54.1646 9.4 56.2579 8.48 58.7912 8.48C61.4312 8.48 63.4446 9.6 64.8312 11.84V0.719999H70.6712V29ZM88.2044 27.84C86.8177 28.7467 84.6977 29.2 81.8444 29.2C78.511 29.2 75.911 28.24 74.0444 26.32C72.2044 24.3733 71.2844 21.88 71.2844 18.84C71.2844 15.6133 72.1777 13.0933 73.9644 11.28C75.7777 9.44 78.0044 8.52 80.6444 8.52C83.3644 8.52 85.511 9.32 87.0844 10.92C88.6577 12.4933 89.4444 14.8533 89.4444 18C89.4444 18.6133 89.3377 19.6667 89.1244 21.16H77.2044C77.6044 22.28 78.2977 23.1467 79.2844 23.76C80.271 24.3733 81.4577 24.68 82.8444 24.68C84.8977 24.68 86.6844 24.1067 88.2044 22.96V27.84ZM80.8844 12.96C79.951 12.96 79.1244 13.3067 78.4044 14C77.6844 14.6667 77.2044 15.6667 76.9644 17H84.0044V16.52C83.8177 14.1467 82.7777 12.96 80.8844 12.96ZM96.2125 29H90.3725L90.4125 8.72H96.2125V12.48C96.5858 11.3067 97.1992 10.3733 98.0525 9.68C98.9325 8.96 99.9458 8.6 101.092 8.6C101.732 8.6 102.239 8.65333 102.612 8.76V14.28C101.972 13.9867 101.239 13.84 100.412 13.84C99.1592 13.84 98.1458 14.3067 97.3725 15.24C96.5992 16.1467 96.2125 17.36 96.2125 18.88V29ZM113.377 28.4C111.271 34.08 108.057 36.92 103.737 36.92C102.911 36.92 102.164 36.8533 101.497 36.72V32.08C101.924 32.1867 102.377 32.24 102.857 32.24C105.071 32.24 106.671 31.0533 107.657 28.68L99.8172 8.72H106.177L108.377 15.04C108.937 16.6667 109.391 18.0667 109.737 19.24C110.111 20.4133 110.337 21.1867 110.417 21.56L110.537 22.12C110.831 21.0533 111.551 18.6933 112.697 15.04L114.697 8.72H120.697L113.377 28.4Z" fill="#1167B1"/>
</svg>
